<svg width="314" height="185" viewBox="0 0 314 185" fill="none" xmlns="http://www.w3.org/2000/svg">
<g clip-path="url(#clip0_5_48)">
<path d="M123.809 116.101C123.906 115.551 123.857 114.99 123.667 114.457C123.477 113.924 123.151 113.433 122.71 113.018C122.269 112.602 121.725 112.273 121.117 112.053C120.508 111.834 119.85 111.728 119.188 111.745L90.1626 87.1102L84.4288 93.8389L114.762 115.939C114.87 116.871 115.381 117.737 116.199 118.374C117.017 119.011 118.085 119.373 119.2 119.393C120.315 119.413 121.4 119.089 122.25 118.483C123.099 117.876 123.654 117.029 123.809 116.101Z" fill="#FFB8B8"/>
<path d="M110.06 101.876L102.652 108.088C102.297 108.384 101.818 108.551 101.318 108.553C100.818 108.554 100.338 108.391 99.9799 108.097L79.7365 91.3905C79.0366 90.8128 78.4801 90.1243 78.0992 89.365C77.7182 88.6056 77.5204 87.7903 77.5171 86.9664C77.5139 86.1424 77.7052 85.3261 78.0801 84.5646C78.455 83.8031 79.0061 83.1116 79.7014 82.53C80.3966 81.9484 81.2224 81.4882 82.1308 81.1762C83.0393 80.8642 84.0124 80.7065 84.9939 80.7121C85.9754 80.7178 86.9459 80.8867 87.8491 81.2092C88.7524 81.5317 89.5705 82.0013 90.2562 82.5909L110.077 99.6357C110.425 99.9365 110.618 100.34 110.615 100.759C110.611 101.178 110.412 101.579 110.06 101.876Z" fill="#0088AE"/>
<path d="M84.079 71.3845C89.8012 71.3845 94.44 67.4904 94.44 62.6868C94.44 57.8833 89.8012 53.9892 84.079 53.9892C78.3568 53.9892 73.718 57.8833 73.718 62.6868C73.718 67.4904 78.3568 71.3845 84.079 71.3845Z" fill="#FFB8B8"/>
<path d="M49.0696 166.914L51.693 170.655L70.1328 163.941L66.2607 158.419L49.0696 166.914Z" fill="#FFB8B8"/>
<path d="M49.8557 165.241L55.0222 172.609C55.4546 173.225 55.7382 173.908 55.8566 174.616C55.9749 175.325 55.9258 176.046 55.7121 176.739C55.4984 177.432 55.1243 178.082 54.611 178.653C54.0978 179.225 53.4556 179.706 52.721 180.069L52.5392 180.158L44.0802 168.094L49.8557 165.241Z" fill="#2F2E41"/>
<path d="M79.4665 180.393H84.6384L87.0986 163.647L79.4657 163.647L79.4665 180.393Z" fill="#FFB8B8"/>
<path d="M78.1475 178.975L88.3324 178.975H88.3329C89.1852 178.975 90.0293 179.116 90.8168 179.39C91.6043 179.663 92.3198 180.065 92.9225 180.571C93.5252 181.077 94.0034 181.677 94.3295 182.338C94.6557 182.999 94.8236 183.708 94.8236 184.424V184.601L78.1478 184.601L78.1475 178.975Z" fill="#2F2E41"/>
<path d="M58.6744 170.247C58.3767 170.247 58.0832 170.189 57.8176 170.076C57.552 169.963 57.3218 169.799 57.1456 169.598L52.1578 163.911C52.0056 163.738 51.8969 163.54 51.8383 163.33C51.7797 163.121 51.7723 162.903 51.8166 162.691C51.861 162.479 51.9561 162.276 52.0963 162.096C52.2365 161.916 52.4187 161.761 52.6322 161.641L74.8272 149.197L61.435 119.637L90.0738 121.621L91.0384 147.023C91.1289 149.336 90.4684 151.627 89.1275 153.649C87.7866 155.672 85.8159 157.35 83.4261 158.505L59.6228 170.033C59.3346 170.173 59.0074 170.247 58.6744 170.247Z" fill="#2F2E41"/>
<path d="M79.6227 176.993C79.1315 176.992 78.6599 176.832 78.3067 176.545C77.9536 176.259 77.7466 175.868 77.7291 175.456L76.6796 150.709L89.676 150.135L88.6411 175.059C88.6259 175.454 88.436 175.83 88.1084 176.114C87.7809 176.397 87.3392 176.568 86.8695 176.594L79.7518 176.99C79.7086 176.992 79.6655 176.993 79.6227 176.993Z" fill="#2F2E41"/>
<path d="M93.3882 126.535C90.0816 126.535 78.5322 123.413 74.5227 122.3C73.9229 122.703 70.6278 124.771 66.7814 124.393C64.4081 124.159 62.3187 123.031 60.5714 121.041C56.7128 116.645 61.4786 97.7923 66.1562 82.7511C67.094 79.7108 69.3993 77.094 72.5877 75.451C75.776 73.8079 79.599 73.2665 83.2531 73.9406C85.9014 74.4313 88.3343 75.5324 90.2784 77.1199C92.2224 78.7075 93.6006 80.7186 94.258 82.9275C95.1387 85.9368 94.3811 89.4766 93.8279 92.0617C93.5679 93.2769 93.3624 94.2369 93.4327 94.7086C93.7042 96.5318 95.2123 125.125 94.2426 126.346C94.1393 126.476 93.8406 126.535 93.3882 126.535Z" fill="#0088AE"/>
<path d="M81.2918 126.585C81.8232 126.253 82.2614 125.827 82.5756 125.338C82.8897 124.848 83.0722 124.307 83.11 123.751C83.1479 123.196 83.0403 122.641 82.7948 122.124C82.5492 121.607 82.1718 121.142 81.689 120.762L81.8937 86.1129L72.1724 87.4718L75.028 121.103C74.3195 121.826 73.9518 122.743 73.9944 123.678C74.037 124.614 74.487 125.504 75.2591 126.18C76.0312 126.855 77.0718 127.27 78.1836 127.345C79.2955 127.42 80.4014 127.149 81.2918 126.585Z" fill="#FFB8B8"/>
<path d="M83.5402 108.364H73.0693C72.5692 108.363 72.0898 108.197 71.7347 107.901C71.3795 107.606 71.177 107.205 71.1709 106.785L70.9139 82.9558C70.905 82.1318 71.0907 81.3145 71.4605 80.5512C71.8302 79.7879 72.3765 79.0936 73.0679 78.5087C73.7593 77.9237 74.5819 77.4596 75.4883 77.1432C76.3947 76.8269 77.3668 76.6645 78.3484 76.6655C79.33 76.6665 80.3017 76.8309 81.2071 77.1491C82.1126 77.4673 82.9339 77.9331 83.6235 78.5195C84.3132 79.1059 84.8575 79.8012 85.225 80.5653C85.5926 81.3294 85.7759 82.1471 85.7646 82.971L85.4384 106.789C85.431 107.208 85.228 107.608 84.873 107.903C84.518 108.197 84.0394 108.363 83.5402 108.364Z" fill="#0088AE"/>
<path d="M81.4408 71.3482C76.6971 71.3555 72.2218 68.2078 71.3997 64.2859C71.1054 62.7451 71.2381 61.1681 71.7875 59.6774C72.384 57.9804 73.407 56.4104 74.7875 55.0734C76.168 53.7364 77.8739 52.6633 79.7902 51.9266C81.7066 51.1899 83.7888 50.8066 85.8965 50.8026C88.0043 50.7986 90.0885 51.174 92.0088 51.9034C93.2779 52.3855 94.5279 53.0779 95.1089 54.1406C95.69 55.2033 95.3263 56.6886 94.0552 57.1668C93.2245 57.4793 92.1821 57.3258 91.4452 57.7743C90.3866 58.4186 90.6591 59.7898 91.1318 60.8131C91.6045 61.8365 92.139 63.0749 91.3467 63.9479C90.6084 64.7615 89.1325 64.7363 87.9701 64.43C86.8076 64.1238 85.6602 63.611 84.4482 63.7153C82.6805 63.8675 81.4102 65.3435 81.1751 66.8221C80.94 68.3006 81.4935 69.7786 82.04 71.198L81.4408 71.3482Z" fill="#2F2E41"/>
<path d="M211.091 80.2249C211.091 56.4401 234.059 0 262.393 0C290.726 0 313.695 56.4401 313.695 80.2249C313.695 91.6468 308.29 102.601 298.669 110.677C289.048 118.754 275.999 123.291 262.393 123.291C248.787 123.291 235.738 118.754 226.117 110.677C216.496 102.601 211.091 91.6468 211.091 80.2249Z" fill="#0088AE"/>
<path d="M262.393 185C262.281 185 262.174 184.963 262.094 184.896C262.015 184.83 261.971 184.74 261.971 184.646V36.1679C261.971 36.074 262.015 35.9839 262.094 35.9175C262.174 35.8511 262.281 35.8138 262.393 35.8138C262.504 35.8138 262.612 35.8511 262.691 35.9175C262.77 35.9839 262.814 36.074 262.814 36.1679V184.646C262.814 184.74 262.77 184.83 262.691 184.896C262.612 184.963 262.504 185 262.393 185Z" fill="#3F3D56"/>
<path d="M262.393 64.8326C262.337 64.8327 262.283 64.8235 262.231 64.8057C262.18 64.7879 262.134 64.7618 262.094 64.7289L241.789 47.6834C241.711 47.6169 241.667 47.527 241.667 47.4335C241.668 47.34 241.712 47.2504 241.791 47.1842C241.87 47.1181 241.977 47.0808 242.088 47.0805C242.199 47.0802 242.306 47.117 242.386 47.1827L262.691 64.2281C262.75 64.2776 262.79 64.3407 262.807 64.4094C262.823 64.4781 262.814 64.5493 262.782 64.614C262.751 64.6787 262.696 64.734 262.627 64.7729C262.558 64.8118 262.476 64.8326 262.393 64.8326Z" fill="#3F3D56"/>
<path d="M262.393 94.3417C262.309 94.3417 262.228 94.3209 262.158 94.282C262.089 94.2431 262.035 94.1878 262.003 94.1231C261.971 94.0584 261.963 93.9872 261.979 93.9185C261.995 93.8498 262.036 93.7867 262.095 93.7372L296.1 65.1913C296.179 65.1256 296.286 65.0889 296.397 65.0892C296.509 65.0895 296.615 65.1268 296.694 65.1929C296.773 65.259 296.817 65.3486 296.818 65.4421C296.818 65.5356 296.774 65.6254 296.696 65.692L262.691 94.238C262.652 94.2709 262.606 94.297 262.554 94.3148C262.503 94.3326 262.448 94.3417 262.393 94.3417Z" fill="#3F3D56"/>
<path d="M120.418 115.9C127.149 114.623 134.774 119.042 135.01 124.975C135.077 126.644 134.494 128.396 132.965 129.532C131.702 130.469 129.822 130.942 128.19 130.484C125.048 129.602 124.88 125.927 126.566 123.964C128.848 121.307 133.368 120.853 136.955 121.169C141.341 121.556 145.509 123.17 149.007 125.382C156.009 129.812 160.468 136.6 164.076 143.159C167.771 149.887 170.457 156.974 172.074 164.257C172.278 165.172 172.464 166.089 172.634 167.009C172.681 167.144 172.791 167.257 172.938 167.325C173.084 167.393 173.257 167.409 173.418 167.371C173.577 167.328 173.71 167.236 173.79 167.114C173.871 166.991 173.892 166.847 173.849 166.712C172.372 158.764 169.643 151.017 165.735 143.672C161.956 136.564 157.192 129.191 149.614 124.447C145.836 122.083 141.375 120.437 136.654 120.085C132.679 119.789 127.973 120.495 125.501 123.397C123.551 125.686 123.75 129.49 126.767 131.085C128.425 131.961 130.533 131.859 132.255 131.177C133.169 130.798 133.974 130.257 134.614 129.591C135.254 128.925 135.714 128.151 135.962 127.321C137.033 124.025 135.406 120.461 132.617 118.106C130 115.889 126.442 114.633 122.724 114.613C121.829 114.622 120.937 114.711 120.065 114.88C119.27 115.03 119.625 116.05 120.418 115.9Z" fill="#CCCCCC"/>
<path d="M152.877 181.151L148.694 175.157L153.852 172.621L158.034 178.615C158.435 179.189 158.547 179.874 158.347 180.518C158.146 181.161 157.65 181.712 156.966 182.048C156.282 182.384 155.467 182.479 154.7 182.311C153.933 182.142 153.277 181.725 152.877 181.151Z" fill="#0088AE"/>
<path d="M139.048 168.691C141.079 168.691 142.726 167.309 142.726 165.604C142.726 163.898 141.079 162.516 139.048 162.516C137.016 162.516 135.369 163.898 135.369 165.604C135.369 167.309 137.016 168.691 139.048 168.691Z" fill="#0088AE"/>
<path d="M169.059 181.151L164.877 175.157L170.034 172.621L174.217 178.615C174.616 179.189 174.728 179.873 174.528 180.516C174.327 181.16 173.83 181.71 173.147 182.046C172.464 182.382 171.649 182.476 170.883 182.309C170.116 182.141 169.46 181.725 169.059 181.151Z" fill="#0088AE"/>
<path d="M139.746 171.824C139.749 170.084 140.573 168.417 142.038 167.187C143.503 165.956 145.49 165.265 147.562 165.263H172.304C173.18 165.264 174.02 165.556 174.639 166.076C175.258 166.596 175.606 167.301 175.607 168.036V170.399C175.605 172.516 174.601 174.546 172.818 176.043C171.035 177.54 168.617 178.383 166.095 178.385H147.562C145.49 178.383 143.503 177.691 142.038 176.461C140.573 175.231 139.749 173.563 139.746 171.824Z" fill="#3F3D56"/>
<path d="M145.452 181.924V174.977H151.429V181.924C151.429 182.59 151.114 183.228 150.554 183.698C149.993 184.169 149.233 184.433 148.44 184.433C147.648 184.433 146.888 184.169 146.327 183.698C145.767 183.228 145.452 182.59 145.452 181.924Z" fill="#3F3D56"/>
<path d="M162.795 181.924V174.977H168.772V181.924C168.772 182.254 168.696 182.581 168.546 182.885C168.396 183.19 168.176 183.467 167.898 183.7C167.62 183.933 167.291 184.119 166.928 184.245C166.565 184.371 166.176 184.436 165.784 184.436C165.391 184.436 165.002 184.371 164.639 184.245C164.276 184.119 163.947 183.933 163.669 183.7C163.392 183.467 163.172 183.19 163.022 182.885C162.872 182.581 162.795 182.254 162.795 181.924Z" fill="#3F3D56"/>
<path d="M187.113 154.439C187.724 153.802 188.612 153.395 189.58 153.307C190.549 153.219 191.519 153.458 192.279 153.97C193.038 154.482 193.525 155.226 193.632 156.039C193.738 156.852 193.456 157.667 192.848 158.306L186.802 164.625L181.067 160.758L187.113 154.439Z" fill="#0088AE"/>
<path d="M172.549 166.887L177.393 161.825C178.57 160.597 180.28 159.811 182.147 159.64C184.014 159.469 185.886 159.926 187.351 160.912L188.865 161.932C190.609 163.111 191.725 164.822 191.968 166.691C192.211 168.56 191.561 170.433 190.161 171.9L186.171 176.071C185.73 176.531 185.089 176.825 184.39 176.889C183.691 176.953 182.991 176.782 182.442 176.412L172.956 170.017C172.408 169.647 172.058 169.11 171.982 168.523C171.905 167.936 172.109 167.348 172.549 166.887Z" fill="#3F3D56"/>
<path d="M187.832 153.687C188.04 153.469 188.297 153.288 188.588 153.154C188.88 153.02 189.199 152.936 189.529 152.906C189.86 152.875 190.194 152.9 190.512 152.978C190.831 153.056 191.128 153.186 191.387 153.361C191.646 153.535 191.862 153.751 192.021 153.995C192.181 154.24 192.282 154.508 192.318 154.785C192.354 155.062 192.324 155.343 192.231 155.61C192.138 155.878 191.983 156.128 191.775 156.345L185.01 163.416L181.067 160.758L187.832 153.687Z" fill="#3F3D56"/>
<path d="M178.14 165.507L188.535 172.515C189.293 173.029 189.777 173.774 189.882 174.586C189.986 175.399 189.702 176.214 189.093 176.851C188.483 177.488 187.597 177.897 186.629 177.986C185.661 178.076 184.69 177.84 183.929 177.33L173.534 170.321L178.14 165.507Z" fill="#3F3D56"/>
<path d="M189.544 177.085C190.081 176.524 190.215 175.866 189.844 175.616C189.473 175.366 188.737 175.618 188.201 176.179C187.664 176.739 187.53 177.397 187.901 177.647C188.272 177.897 189.008 177.645 189.544 177.085Z" fill="#0088AE"/>
<path d="M292.668 184.934H1.17185C1.05997 184.934 0.952667 184.896 0.873556 184.83C0.794444 184.764 0.75 184.674 0.75 184.58C0.75 184.486 0.794444 184.396 0.873556 184.33C0.952667 184.263 1.05997 184.226 1.17185 184.226H292.668C292.78 184.226 292.887 184.263 292.966 184.33C293.045 184.396 293.09 184.486 293.09 184.58C293.09 184.674 293.045 184.764 292.966 184.83C292.887 184.896 292.78 184.934 292.668 184.934Z" fill="#CCCCCC"/>
</g>
<defs>
<clipPath id="clip0_5_48">
<rect width="312.945" height="185" fill="white" transform="translate(0.75)"/>
</clipPath>
</defs>
</svg>
