<svg width="290" height="185" viewBox="0 0 290 185" fill="none" xmlns="http://www.w3.org/2000/svg">
<g clip-path="url(#clip0_2_62)">
<path d="M289.095 155.351C289.095 155.568 288.886 155.742 288.625 155.742H1.00841C0.747779 155.742 0.53846 155.568 0.53846 155.351C0.53846 155.246 0.585874 155.154 0.664838 155.085H36.0971C36.8514 155.085 37.5899 155.042 38.3166 154.96H288.625C288.886 154.96 289.095 155.134 289.095 155.351Z" fill="#3F3D56"/>
<path d="M59.2141 90.3709H30.1386V150.019H59.2141V90.3709Z" fill="#E6E6E6"/>
<path d="M45.5128 107.603C45.5128 113.642 39.6282 118.538 32.3691 118.538C25.11 118.538 19.2254 113.642 19.2254 107.603C19.2254 101.563 25.11 96.6671 32.3691 96.6671C39.6282 96.6671 45.5128 101.563 45.5128 107.603Z" fill="#E6E6E6"/>
<path d="M20.2218 110.718C22.2455 110.718 23.8861 109.353 23.8861 107.669C23.8861 105.985 22.2455 104.62 20.2218 104.62C18.198 104.62 16.5575 105.985 16.5575 107.669C16.5575 109.353 18.198 110.718 20.2218 110.718Z" fill="#E6E6E6"/>
<path d="M68.6139 107.536C68.6139 111.05 65.1901 113.899 60.9666 113.899C56.7432 113.899 53.3194 111.05 53.3194 107.536C53.3194 104.023 56.7432 101.174 60.9666 101.174C65.1901 101.174 68.6139 104.023 68.6139 107.536Z" fill="#E6E6E6"/>
<path d="M68.6139 110.585C70.6376 110.585 72.2782 109.22 72.2782 107.536C72.2782 105.853 70.6376 104.488 68.6139 104.488C66.5902 104.488 64.9496 105.853 64.9496 107.536C64.9496 109.22 66.5902 110.585 68.6139 110.585Z" fill="#E6E6E6"/>
<path d="M45.0349 71.8798C47.0586 71.8798 48.6992 70.5149 48.6992 68.8311C48.6992 67.1474 47.0586 65.7824 45.0349 65.7824C43.0111 65.7824 41.3706 67.1474 41.3706 68.8311C41.3706 70.5149 43.0111 71.8798 45.0349 71.8798Z" fill="#E6E6E6"/>
<path d="M27.3506 85.7979H63.3564C65.2042 85.7979 66.7021 87.0441 66.7021 88.5815C66.7021 90.1188 65.2042 91.3651 63.3564 91.3651H27.3506C25.5028 91.3651 24.0049 90.1188 24.0049 88.5815C24.0049 87.0441 25.5028 85.7979 27.3506 85.7979Z" fill="#E6E6E6"/>
<path d="M45.3535 71.8799C53.0034 71.8799 59.2141 77.0472 59.2141 83.4119V87.521H31.4929V83.4119C31.4929 77.0472 37.7036 71.8799 45.3535 71.8799Z" fill="#E6E6E6"/>
<path d="M67.0605 149.025H22.2923V154.99H67.0605V149.025Z" fill="#E6E6E6"/>
<path d="M82.7679 118.714C86.3091 120.491 86.6584 121.33 88.8038 122.062C89.8896 122.433 91.9227 122.943 95.8457 122.481C101.251 121.844 104.584 120.027 113.954 115.785C120.636 112.759 123.903 111.436 128.54 110.763C132.015 110.259 134.034 110.443 135.582 110.763C140.982 111.882 143.93 115.347 144.636 116.204C147.076 119.164 147.385 122.056 147.654 124.573C147.993 127.745 148.482 132.328 145.642 135.873C142.083 140.315 137.126 138.346 128.54 142.568C119.05 147.235 120.638 151.838 112.948 154.286C103.107 157.419 92.3946 152.467 91.8218 152.194C81.6339 147.332 79.5494 138.511 74.217 139.221C71.0311 139.645 70.7138 142.935 65.6661 143.824C64.7216 143.99 60.8346 144.675 58.1212 142.568C56.454 141.274 56.5057 144.172 57.3667 142.359C58.4721 140.032 60.7024 135.491 62.1452 132.943C62.9159 131.582 62.0471 131.162 62.6482 127.503C62.9417 125.715 63.0899 124.813 63.6541 123.736C65.0521 121.068 67.7669 119.691 69.6901 118.714C72.0299 117.527 74.3303 116.359 77.235 116.622C78.8972 116.772 80.1874 117.42 82.7679 118.714Z" fill="#3F3D56"/>
<path d="M144.133 128.758C145.025 129.366 145.238 130.599 145.642 132.943C146.016 135.112 145.789 136.442 145.642 138.802C145.422 142.345 145.769 142.015 145.642 146.753C145.538 150.652 145.486 152.602 145.139 154.286C144.516 157.315 144.184 156.151 141.115 163.911C140.492 165.486 139.997 166.822 138.6 167.259C136.851 167.807 134.835 166.584 134.576 166.422C134.152 166.158 132.658 165.226 132.564 163.911C132.445 162.242 134.716 161.82 136.588 159.308C137.757 157.74 138.038 156.17 138.6 153.031C139.135 150.045 139.402 148.552 138.6 147.172C137.137 144.653 133.791 143.872 133.57 143.824C131.567 143.383 130.92 144.007 128.54 143.824C126.314 143.652 122.647 142.781 122.001 141.313C120.231 137.289 139.871 125.853 144.133 128.758Z" fill="#3F3D56"/>
<path d="M136.085 122.899C136.978 123.508 137.19 124.74 137.594 127.084C137.968 129.253 137.741 130.583 137.594 132.943C137.374 136.486 137.721 136.156 137.594 140.894C137.49 144.793 137.438 146.743 137.091 148.427C136.468 151.456 136.136 150.292 133.067 158.053C132.445 159.627 131.949 160.963 130.552 161.401C128.803 161.948 126.787 160.725 126.528 160.564C126.104 160.299 124.61 159.367 124.516 158.053C124.398 156.384 126.668 155.961 128.54 153.449C129.709 151.881 129.99 150.311 130.552 147.172C131.087 144.186 131.354 142.693 130.552 141.313C129.089 138.794 125.743 138.013 125.522 137.965C123.519 137.525 122.872 138.148 120.492 137.965C118.266 137.794 114.599 136.922 113.953 135.454C112.183 131.43 131.823 119.994 136.085 122.899Z" fill="#3F3D56"/>
<path d="M120.995 143.405C121.562 144.124 122.211 145.977 123.51 149.683C124.09 151.335 127.841 162.209 129.043 165.585C129.389 166.556 129.837 167.768 131.055 168.933C132.081 169.915 132.629 169.884 133.067 170.607C134.208 172.49 131.982 175.147 131.558 175.629C131.066 176.191 128.777 178.799 125.522 178.559C125.182 178.533 122.983 178.371 122.504 177.303C121.771 175.667 126.081 174.131 126.025 171.444C125.992 169.858 124.464 169.2 122.504 167.259C118.3 163.095 120.093 160.932 116.971 157.634C112.303 152.701 103.625 152.611 102.385 152.612C99.1717 152.616 94.7002 152.622 91.8218 155.123C87.8089 158.611 89.4673 164.712 87.7978 173.955C87.7978 173.955 87.5272 175.454 86.7918 177.722C85.5784 181.464 84.6103 182.43 84.2769 182.743C83.8239 183.169 82.4985 184.38 80.2529 184.836C79.9436 184.899 78.513 185.171 76.732 184.836C75.55 184.613 74.4725 184.41 73.714 183.58C72.9865 182.784 72.7107 181.585 73.211 180.651C73.8165 179.521 75.0642 179.705 76.732 178.559C77.909 177.75 78.5227 176.624 79.7499 174.374C80.2932 173.377 81.107 171.867 81.7619 169.77C82.5199 167.344 82.6129 165.469 82.7679 161.819C82.8985 158.744 82.8354 156.187 82.7679 153.449C82.6892 150.261 82.582 149.22 82.7679 147.172C82.963 145.023 83.1529 142.93 83.7739 141.731C87.1145 135.282 113.622 134.049 120.995 143.405Z" fill="#3F3D56"/>
<path d="M142.121 114.948C144.271 113.959 144.578 111.644 145.139 107.415C145.548 104.335 145.791 102.5 144.636 100.301C143.077 97.3321 140.151 95.9465 139.606 95.6975C139.011 95.4255 135.104 93.7015 131.055 94.8605C130.49 95.0222 128.994 95.947 126.025 97.7899C122.482 99.9892 121.963 100.409 121.498 101.138C120.257 103.089 120.389 105.726 121.498 106.16C122.341 106.489 123.798 105.565 124.516 104.904C125.375 104.114 125.246 103.635 126.025 102.812C126.643 102.159 127.225 101.932 129.043 101.138C133.547 99.1716 133.775 98.9107 134.576 99.0454C136.572 99.3811 137.523 101.4 137.594 101.556C138.203 102.902 137.786 104.125 137.091 106.16C136.724 107.236 136.306 108.067 135.582 109.508C134.271 112.117 133.926 112.312 134.073 112.856C134.557 114.638 139.282 116.255 142.121 114.948Z" fill="#3F3D56"/>
<path d="M90.5643 122.272C91.3959 122.386 91.7994 126.342 90.5643 129.804C89.7196 132.172 88.0159 134.569 87.7119 134.992C87.4724 135.325 87.2418 135.629 86.5403 136.5C83.1095 140.762 81.3762 142.891 80.5044 142.778C79.3419 142.626 82.5238 140.339 82.7679 138.152C83.2217 134.085 85.4161 133.583 89.3068 127.689C91.4122 124.5 89.9152 122.182 90.5643 122.272Z" fill="#A944FF"/>
<path d="M72.9595 121.016C72.539 119.236 74.9299 116.762 77.4865 116.413C81.2145 115.903 84.4507 120.023 85.5344 122.69C87.0248 126.358 85.351 129.511 84.5284 131.06C83.4966 133.003 82.7251 133.131 82.5164 133.152C80.9945 133.311 79.1906 130.992 78.4924 128.967C77.8782 127.187 78.5713 126.943 77.9894 125.62C76.7915 122.896 73.4083 122.916 72.9595 121.016Z" fill="#2F2E41"/>
<path d="M89.8236 129.943L189.633 75.7489L188.162 75.471L88.3519 129.666L89.8236 129.943Z" fill="#A944FF"/>
<path d="M213.714 26.3036L211.528 19.6348L221.365 16.6036L222.458 22.6661L213.714 26.3036Z" fill="#A0616A"/>
<path opacity="0.1" d="M213.714 26.3036L211.528 19.6348L217.321 17.6018L215.522 25.4636L213.714 26.3036Z" fill="black"/>
<path d="M184.918 83.4572C183.039 82.5271 182.94 79.7817 184.696 77.3252C185.465 76.2498 186.463 75.4082 187.498 74.8796L188.53 73.4773L201.58 54.0122C201.58 54.0122 207.293 35.6542 209.619 33.4345C211.945 31.2149 215.307 31.7378 215.307 31.7378L218.29 33.942L207.645 59.9436L194.508 75.3358L192.747 77.4778C192.683 78.4873 192.27 79.618 191.501 80.6933C189.744 83.1498 186.797 84.3873 184.918 83.4572Z" fill="#A0616A"/>
<path d="M213.176 24.3988C213.176 24.3988 217.327 24.2652 219.946 26.948C222.565 29.6307 208.845 59.8675 208.845 59.8675L197.669 59.5383L213.176 24.3988Z" fill="#A944FF"/>
<path d="M214.261 20.6958C219.895 20.6958 224.462 16.8958 224.462 12.2083C224.462 7.52075 219.895 3.72076 214.261 3.72076C208.627 3.72076 204.059 7.52075 204.059 12.2083C204.059 16.8958 208.627 20.6958 214.261 20.6958Z" fill="#A0616A"/>
<path d="M190.397 135.429L183.475 149.676L179.467 146.341L178.01 139.976L183.839 133.913L190.397 135.429Z" fill="#A0616A"/>
<path d="M255.248 130.276L262.171 136.944L258.892 142.401L251.605 141.491L247.962 133.004L255.248 130.276Z" fill="#A0616A"/>
<path d="M209.16 50.7052L208.249 62.9818L230.838 59.6474L229.381 52.0692L209.16 50.7052Z" fill="#A0616A"/>
<path d="M208.067 63.1333L230.838 56.9193C230.838 56.9193 239.218 70.863 230.109 79.6536C221.001 88.4443 190.761 138.46 190.761 138.46L181.653 134.822L194.769 102.994L209.342 73.5911L208.067 63.1333Z" fill="#2F2E41"/>
<path d="M230.109 74.5005L238.853 106.329L257.07 130.882L247.597 135.429L222.094 106.329L213.714 83.8974L230.109 74.5005Z" fill="#2F2E41"/>
<path d="M174.731 138.763H168.421C168.421 138.763 161.058 136.338 159.333 138.763C157.607 141.188 167.032 148.066 167.032 148.066C167.032 148.066 180.196 154.222 182.017 153.919C183.839 153.616 184.568 149.979 184.568 149.979L186.754 145.735L183.475 146.644C183.475 146.644 179.103 144.522 180.196 140.885L174.731 138.763Z" fill="#2F2E41"/>
<path d="M260.713 137.854V134.822L264.949 137.854C264.949 137.854 272.008 139.976 266.543 144.522C261.078 149.069 254.155 153.919 254.155 153.919C254.155 153.919 243.225 156.344 242.497 153.616C241.768 150.888 242.497 149.784 242.497 149.784L246.504 148.16L250.148 140.279L255.977 140.885L260.713 137.854Z" fill="#2F2E41"/>
<path d="M217.358 13.8755L214.079 13.5723L208.067 8.57077C208.067 8.57077 202.602 10.9958 202.602 9.17703C202.602 0.689518 208.796 0.992644 213.896 0.386396C218.997 -0.219856 218.451 -0.371417 220.09 1.90202C220.84 2.94173 223.551 3.56921 223.551 3.56921C223.551 3.56921 228.652 -2.19017 231.202 4.78171C233.753 11.7536 230.474 33.2755 233.024 35.0942C235.574 36.913 222.552 38.729 223.963 31.607C225.373 24.4849 227.923 13.5723 226.466 11.1473C225.009 8.72234 224.644 9.32859 224.644 9.32859C226.45 8.71509 227.63 19.5214 220.821 20.0505L220.637 14.7848C220.637 14.7848 219.544 12.0567 217.358 13.8755Z" fill="#2F2E41"/>
<path d="M212.803 24.3333L223.733 20.6958L238.307 57.0708L208.322 56.1621L205.622 45.3053C205.622 45.3053 202.986 39.6548 205.172 36.3204C207.358 32.986 212.803 24.3333 212.803 24.3333Z" fill="#A944FF"/>
<path d="M241.245 85.2661C239.067 85.4218 237.063 83.2393 236.769 80.3913C236.64 79.1446 236.86 77.9771 237.331 77.0453L237.187 75.4056L234.151 53.2605C234.151 53.2605 228.5 35.1461 228.834 32.2145C229.168 29.283 229.696 28.5048 229.696 28.5048L233.664 28.8489L243.234 55.1383L243.346 74.0161L243.416 76.6105C244.072 77.4618 244.528 78.5809 244.657 79.8276C244.951 82.6756 243.423 85.1105 241.245 85.2661Z" fill="#A0616A"/>
<path d="M222.823 23.5755C222.823 23.5755 226.102 21.4536 230.109 22.363C234.117 23.2723 244.156 54.4942 244.156 54.4942L234.846 59.6474L222.823 23.5755Z" fill="#A944FF"/>
</g>
<defs>
<clipPath id="clip0_2_62">
<rect width="288.556" height="185" fill="white" transform="translate(0.53846)"/>
</clipPath>
</defs>
</svg>
